solid CATIA STL
  facet normal  -0.000000e+000  0.000000e+000  9.999999e-001
    outer loop
      vertex -8.333554e-001  1.247204e+000  7.000000e+000
      vertex -1.662939e+000  1.111140e+000  7.000000e+000
      vertex -1.060660e+000  1.060660e+000  7.000000e+000
    endloop
  endfacet
  facet normal  0.000000e+000  0.000000e+000  1.000000e+000
    outer loop
      vertex -3.673819e-016 -2.000000e+000  7.000000e+000
      vertex -1.111140e+000 -1.662939e+000  7.000000e+000
      vertex -7.653669e-001 -1.847759e+000  7.000000e+000
    endloop
  endfacet
  facet normal  0.000000e+000  0.000000e+000  1.000000e+000
    outer loop
      vertex -3.673819e-016 -2.000000e+000  7.000000e+000
      vertex -7.653669e-001 -1.847759e+000  7.000000e+000
      vertex -3.901806e-001 -1.961571e+000  7.000000e+000
    endloop
  endfacet
  facet normal  0.000000e+000  -0.000000e+000  9.999999e-001
    outer loop
      vertex  8.333554e-001  1.247204e+000  7.000000e+000
      vertex  1.060660e+000  1.060660e+000  7.000000e+000
      vertex  1.662939e+000  1.111140e+000  7.000000e+000
    endloop
  endfacet
  facet normal  0.000000e+000  -0.000000e+000  1.000000e+000
    outer loop
      vertex -3.673819e-016 -2.000000e+000  7.000000e+000
      vertex  7.653669e-001 -1.847759e+000  7.000000e+000
      vertex  1.111140e+000 -1.662939e+000  7.000000e+000
    endloop
  endfacet
  facet normal  0.000000e+000  -0.000000e+000  1.000000e+000
    outer loop
      vertex -3.673819e-016 -2.000000e+000  7.000000e+000
      vertex  3.901806e-001 -1.961571e+000  7.000000e+000
      vertex  7.653669e-001 -1.847759e+000  7.000000e+000
    endloop
  endfacet
  facet normal  -0.000000e+000  -0.000000e+000  1.000000e+000
    outer loop
      vertex  9.184548e-017  1.500000e+000  7.000000e+000
      vertex  2.926355e-001  1.471178e+000  7.000000e+000
      vertex  1.414214e+000  1.414214e+000  7.000000e+000
    endloop
  endfacet
  facet normal  0.000000e+000  0.000000e+000  1.000000e+000
    outer loop
      vertex  9.184548e-017  1.500000e+000  7.000000e+000
      vertex  1.414214e+000  1.414214e+000  7.000000e+000
      vertex  1.111140e+000  1.662939e+000  7.000000e+000
    endloop
  endfacet
  facet normal  0.000000e+000  0.000000e+000  1.000000e+000
    outer loop
      vertex  9.184548e-017  1.500000e+000  7.000000e+000
      vertex  1.111140e+000  1.662939e+000  7.000000e+000
      vertex  7.653669e-001  1.847759e+000  7.000000e+000
    endloop
  endfacet
  facet normal  0.000000e+000  0.000000e+000  1.000000e+000
    outer loop
      vertex  9.184548e-017  1.500000e+000  7.000000e+000
      vertex  7.653669e-001  1.847759e+000  7.000000e+000
      vertex  3.901806e-001  1.961571e+000  7.000000e+000
    endloop
  endfacet
  facet normal  0.000000e+000  0.000000e+000  9.999999e-001
    outer loop
      vertex  9.184548e-017  1.500000e+000  7.000000e+000
      vertex  3.901806e-001  1.961571e+000  7.000000e+000
      vertex  1.224606e-016  2.000000e+000  7.000000e+000
    endloop
  endfacet
  facet normal  0.000000e+000  0.000000e+000  9.999999e-001
    outer loop
      vertex  9.184548e-017  1.500000e+000  7.000000e+000
      vertex  1.224606e-016  2.000000e+000  7.000000e+000
      vertex -3.901806e-001  1.961571e+000  7.000000e+000
    endloop
  endfacet
  facet normal  0.000000e+000  0.000000e+000  1.000000e+000
    outer loop
      vertex  9.184548e-017  1.500000e+000  7.000000e+000
      vertex -3.901806e-001  1.961571e+000  7.000000e+000
      vertex -7.653669e-001  1.847759e+000  7.000000e+000
    endloop
  endfacet
  facet normal  0.000000e+000  0.000000e+000  1.000000e+000
    outer loop
      vertex  9.184548e-017  1.500000e+000  7.000000e+000
      vertex -7.653669e-001  1.847759e+000  7.000000e+000
      vertex -1.111140e+000  1.662939e+000  7.000000e+000
    endloop
  endfacet
  facet normal  0.000000e+000  0.000000e+000  1.000000e+000
    outer loop
      vertex  9.184548e-017  1.500000e+000  7.000000e+000
      vertex -1.111140e+000  1.662939e+000  7.000000e+000
      vertex -1.414214e+000  1.414214e+000  7.000000e+000
    endloop
  endfacet
  facet normal  0.000000e+000  0.000000e+000  1.000000e+000
    outer loop
      vertex  9.184548e-017  1.500000e+000  7.000000e+000
      vertex -1.414214e+000  1.414214e+000  7.000000e+000
      vertex -2.926355e-001  1.471178e+000  7.000000e+000
    endloop
  endfacet
  facet normal  0.000000e+000  0.000000e+000  1.000000e+000
    outer loop
      vertex -1.662939e+000  1.111140e+000  7.000000e+000
      vertex -8.333554e-001  1.247204e+000  7.000000e+000
      vertex -1.414214e+000  1.414214e+000  7.000000e+000
    endloop
  endfacet
  facet normal  0.000000e+000  0.000000e+000  1.000000e+000
    outer loop
      vertex -1.414214e+000  1.414214e+000  7.000000e+000
      vertex -8.333554e-001  1.247204e+000  7.000000e+000
      vertex -5.740252e-001  1.385819e+000  7.000000e+000
    endloop
  endfacet
  facet normal  0.000000e+000  -0.000000e+000  1.000000e+000
    outer loop
      vertex -1.414214e+000  1.414214e+000  7.000000e+000
      vertex -5.740252e-001  1.385819e+000  7.000000e+000
      vertex -2.926355e-001  1.471178e+000  7.000000e+000
    endloop
  endfacet
  facet normal  0.000000e+000  0.000000e+000  1.000000e+000
    outer loop
      vertex -1.060660e+000  1.060660e+000  7.000000e+000
      vertex -1.662939e+000  1.111140e+000  7.000000e+000
      vertex -1.247204e+000  8.333554e-001  7.000000e+000
    endloop
  endfacet
  facet normal  0.000000e+000  0.000000e+000  9.999999e-001
    outer loop
      vertex -1.247204e+000  8.333554e-001  7.000000e+000
      vertex -1.662939e+000  1.111140e+000  7.000000e+000
      vertex -1.847759e+000  7.653669e-001  7.000000e+000
    endloop
  endfacet
  facet normal  -0.000000e+000  0.000000e+000  1.000000e+000
    outer loop
      vertex -1.247204e+000  8.333554e-001  7.000000e+000
      vertex -1.847759e+000  7.653669e-001  7.000000e+000
      vertex -1.385819e+000  5.740252e-001  7.000000e+000
    endloop
  endfacet
  facet normal  0.000000e+000  0.000000e+000  1.000000e+000
    outer loop
      vertex -1.385819e+000  5.740252e-001  7.000000e+000
      vertex -1.847759e+000  7.653669e-001  7.000000e+000
      vertex -1.961571e+000  3.901806e-001  7.000000e+000
    endloop
  endfacet
  facet normal  -0.000000e+000  0.000000e+000  1.000000e+000
    outer loop
      vertex -1.385819e+000  5.740252e-001  7.000000e+000
      vertex -1.961571e+000  3.901806e-001  7.000000e+000
      vertex -1.471178e+000  2.926355e-001  7.000000e+000
    endloop
  endfacet
  facet normal  0.000000e+000  0.000000e+000  1.000000e+000
    outer loop
      vertex -1.471178e+000  2.926355e-001  7.000000e+000
      vertex -1.961571e+000  3.901806e-001  7.000000e+000
      vertex -1.500000e+000  1.836910e-016  7.000000e+000
    endloop
  endfacet
  facet normal  0.000000e+000  0.000000e+000  9.999999e-001
    outer loop
      vertex -1.500000e+000  1.836910e-016  7.000000e+000
      vertex -1.961571e+000  3.901806e-001  7.000000e+000
      vertex -2.000000e+000  2.449213e-016  7.000000e+000
    endloop
  endfacet
  facet normal  0.000000e+000  0.000000e+000  1.000000e+000
    outer loop
      vertex -1.500000e+000  1.836910e-016  7.000000e+000
      vertex -2.000000e+000  2.449213e-016  7.000000e+000
      vertex -1.471178e+000 -2.926355e-001  7.000000e+000
    endloop
  endfacet
  facet normal  0.000000e+000  0.000000e+000  1.000000e+000
    outer loop
      vertex -1.471178e+000 -2.926355e-001  7.000000e+000
      vertex -2.000000e+000  2.449213e-016  7.000000e+000
      vertex -1.961571e+000 -3.901806e-001  7.000000e+000
    endloop
  endfacet
  facet normal  -0.000000e+000  0.000000e+000  1.000000e+000
    outer loop
      vertex -1.471178e+000 -2.926355e-001  7.000000e+000
      vertex -1.961571e+000 -3.901806e-001  7.000000e+000
      vertex -1.385819e+000 -5.740252e-001  7.000000e+000
    endloop
  endfacet
  facet normal  0.000000e+000  0.000000e+000  1.000000e+000
    outer loop
      vertex -1.385819e+000 -5.740252e-001  7.000000e+000
      vertex -1.961571e+000 -3.901806e-001  7.000000e+000
      vertex -1.847759e+000 -7.653669e-001  7.000000e+000
    endloop
  endfacet
  facet normal  -0.000000e+000  0.000000e+000  1.000000e+000
    outer loop
      vertex -1.385819e+000 -5.740252e-001  7.000000e+000
      vertex -1.847759e+000 -7.653669e-001  7.000000e+000
      vertex -1.247204e+000 -8.333554e-001  7.000000e+000
    endloop
  endfacet
  facet normal  0.000000e+000  0.000000e+000  1.000000e+000
    outer loop
      vertex -1.247204e+000 -8.333554e-001  7.000000e+000
      vertex -1.847759e+000 -7.653669e-001  7.000000e+000
      vertex -1.060660e+000 -1.060660e+000  7.000000e+000
    endloop
  endfacet
  facet normal  0.000000e+000  0.000000e+000  1.000000e+000
    outer loop
      vertex -1.060660e+000 -1.060660e+000  7.000000e+000
      vertex -1.847759e+000 -7.653669e-001  7.000000e+000
      vertex -1.662939e+000 -1.111140e+000  7.000000e+000
    endloop
  endfacet
  facet normal  -0.000000e+000  0.000000e+000  9.999999e-001
    outer loop
      vertex -1.060660e+000 -1.060660e+000  7.000000e+000
      vertex -1.662939e+000 -1.111140e+000  7.000000e+000
      vertex -8.333554e-001 -1.247204e+000  7.000000e+000
    endloop
  endfacet
  facet normal  0.000000e+000  0.000000e+000  1.000000e+000
    outer loop
      vertex -8.333554e-001 -1.247204e+000  7.000000e+000
      vertex -1.662939e+000 -1.111140e+000  7.000000e+000
      vertex -1.414214e+000 -1.414214e+000  7.000000e+000
    endloop
  endfacet
  facet normal  0.000000e+000  0.000000e+000  1.000000e+000
    outer loop
      vertex -8.333554e-001 -1.247204e+000  7.000000e+000
      vertex -1.414214e+000 -1.414214e+000  7.000000e+000
      vertex -5.740252e-001 -1.385819e+000  7.000000e+000
    endloop
  endfacet
  facet normal  -0.000000e+000  0.000000e+000  1.000000e+000
    outer loop
      vertex -5.740252e-001 -1.385819e+000  7.000000e+000
      vertex -1.414214e+000 -1.414214e+000  7.000000e+000
      vertex -2.926355e-001 -1.471178e+000  7.000000e+000
    endloop
  endfacet
  facet normal  0.000000e+000  0.000000e+000  1.000000e+000
    outer loop
      vertex -2.926355e-001 -1.471178e+000  7.000000e+000
      vertex -1.414214e+000 -1.414214e+000  7.000000e+000
      vertex -1.111140e+000 -1.662939e+000  7.000000e+000
    endloop
  endfacet
  facet normal  0.000000e+000  0.000000e+000  1.000000e+000
    outer loop
      vertex -2.926355e-001 -1.471178e+000  7.000000e+000
      vertex -1.111140e+000 -1.662939e+000  7.000000e+000
      vertex -2.755364e-016 -1.500000e+000  7.000000e+000
    endloop
  endfacet
  facet normal  0.000000e+000  0.000000e+000  1.000000e+000
    outer loop
      vertex -2.755364e-016 -1.500000e+000  7.000000e+000
      vertex -1.111140e+000 -1.662939e+000  7.000000e+000
      vertex -3.673819e-016 -2.000000e+000  7.000000e+000
    endloop
  endfacet
  facet normal  0.000000e+000  0.000000e+000  1.000000e+000
    outer loop
      vertex -2.755364e-016 -1.500000e+000  7.000000e+000
      vertex -3.673819e-016 -2.000000e+000  7.000000e+000
      vertex  2.926355e-001 -1.471178e+000  7.000000e+000
    endloop
  endfacet
  facet normal  0.000000e+000  0.000000e+000  9.999999e-001
    outer loop
      vertex  2.926355e-001 -1.471178e+000  7.000000e+000
      vertex -3.673819e-016 -2.000000e+000  7.000000e+000
      vertex  1.111140e+000 -1.662939e+000  7.000000e+000
    endloop
  endfacet
  facet normal  0.000000e+000  0.000000e+000  9.999999e-001
    outer loop
      vertex  2.926355e-001 -1.471178e+000  7.000000e+000
      vertex  1.111140e+000 -1.662939e+000  7.000000e+000
      vertex  5.740252e-001 -1.385819e+000  7.000000e+000
    endloop
  endfacet
  facet normal  0.000000e+000  0.000000e+000  1.000000e+000
    outer loop
      vertex  5.740252e-001 -1.385819e+000  7.000000e+000
      vertex  1.111140e+000 -1.662939e+000  7.000000e+000
      vertex  1.414214e+000 -1.414214e+000  7.000000e+000
    endloop
  endfacet
  facet normal  0.000000e+000  0.000000e+000  1.000000e+000
    outer loop
      vertex  5.740252e-001 -1.385819e+000  7.000000e+000
      vertex  1.414214e+000 -1.414214e+000  7.000000e+000
      vertex  8.333554e-001 -1.247204e+000  7.000000e+000
    endloop
  endfacet
  facet normal  0.000000e+000  0.000000e+000  1.000000e+000
    outer loop
      vertex  8.333554e-001  1.247204e+000  7.000000e+000
      vertex  1.662939e+000  1.111140e+000  7.000000e+000
      vertex  5.740252e-001  1.385819e+000  7.000000e+000
    endloop
  endfacet
  facet normal  -0.000000e+000  0.000000e+000  1.000000e+000
    outer loop
      vertex  5.740252e-001  1.385819e+000  7.000000e+000
      vertex  1.662939e+000  1.111140e+000  7.000000e+000
      vertex  1.414214e+000  1.414214e+000  7.000000e+000
    endloop
  endfacet
  facet normal  0.000000e+000  0.000000e+000  1.000000e+000
    outer loop
      vertex  5.740252e-001  1.385819e+000  7.000000e+000
      vertex  1.414214e+000  1.414214e+000  7.000000e+000
      vertex  2.926355e-001  1.471178e+000  7.000000e+000
    endloop
  endfacet
  facet normal  -0.000000e+000  0.000000e+000  1.000000e+000
    outer loop
      vertex  1.662939e+000  1.111140e+000  7.000000e+000
      vertex  1.060660e+000  1.060660e+000  7.000000e+000
      vertex  1.847759e+000  7.653669e-001  7.000000e+000
    endloop
  endfacet
  facet normal  0.000000e+000  0.000000e+000  1.000000e+000
    outer loop
      vertex  1.847759e+000  7.653669e-001  7.000000e+000
      vertex  1.060660e+000  1.060660e+000  7.000000e+000
      vertex  1.247204e+000  8.333554e-001  7.000000e+000
    endloop
  endfacet
  facet normal  0.000000e+000  0.000000e+000  1.000000e+000
    outer loop
      vertex  1.847759e+000  7.653669e-001  7.000000e+000
      vertex  1.247204e+000  8.333554e-001  7.000000e+000
      vertex  1.961571e+000  3.901806e-001  7.000000e+000
    endloop
  endfacet
  facet normal  0.000000e+000  0.000000e+000  9.999999e-001
    outer loop
      vertex  1.961571e+000  3.901806e-001  7.000000e+000
      vertex  1.247204e+000  8.333554e-001  7.000000e+000
      vertex  1.385819e+000  5.740252e-001  7.000000e+000
    endloop
  endfacet
  facet normal  0.000000e+000  0.000000e+000  1.000000e+000
    outer loop
      vertex  1.961571e+000  3.901806e-001  7.000000e+000
      vertex  1.385819e+000  5.740252e-001  7.000000e+000
      vertex  1.471178e+000  2.926355e-001  7.000000e+000
    endloop
  endfacet
  facet normal  -0.000000e+000  0.000000e+000  1.000000e+000
    outer loop
      vertex  1.961571e+000  3.901806e-001  7.000000e+000
      vertex  1.471178e+000  2.926355e-001  7.000000e+000
      vertex  2.000000e+000  0.000000e+000  7.000000e+000
    endloop
  endfacet
  facet normal  0.000000e+000  0.000000e+000  1.000000e+000
    outer loop
      vertex  2.000000e+000  0.000000e+000  7.000000e+000
      vertex  1.471178e+000  2.926355e-001  7.000000e+000
      vertex  1.500000e+000  0.000000e+000  7.000000e+000
    endloop
  endfacet
  facet normal  -0.000000e+000  0.000000e+000  9.999999e-001
    outer loop
      vertex  2.000000e+000  0.000000e+000  7.000000e+000
      vertex  1.500000e+000  0.000000e+000  7.000000e+000
      vertex  1.961571e+000 -3.901806e-001  7.000000e+000
    endloop
  endfacet
  facet normal  0.000000e+000  0.000000e+000  1.000000e+000
    outer loop
      vertex  1.961571e+000 -3.901806e-001  7.000000e+000
      vertex  1.500000e+000  0.000000e+000  7.000000e+000
      vertex  1.471178e+000 -2.926355e-001  7.000000e+000
    endloop
  endfacet
  facet normal  0.000000e+000  0.000000e+000  1.000000e+000
    outer loop
      vertex  1.961571e+000 -3.901806e-001  7.000000e+000
      vertex  1.471178e+000 -2.926355e-001  7.000000e+000
      vertex  1.847759e+000 -7.653669e-001  7.000000e+000
    endloop
  endfacet
  facet normal  0.000000e+000  0.000000e+000  1.000000e+000
    outer loop
      vertex  1.847759e+000 -7.653669e-001  7.000000e+000
      vertex  1.471178e+000 -2.926355e-001  7.000000e+000
      vertex  1.385819e+000 -5.740252e-001  7.000000e+000
    endloop
  endfacet
  facet normal  0.000000e+000  0.000000e+000  1.000000e+000
    outer loop
      vertex  1.847759e+000 -7.653669e-001  7.000000e+000
      vertex  1.385819e+000 -5.740252e-001  7.000000e+000
      vertex  1.247204e+000 -8.333554e-001  7.000000e+000
    endloop
  endfacet
  facet normal  -0.000000e+000  0.000000e+000  9.999999e-001
    outer loop
      vertex  1.847759e+000 -7.653669e-001  7.000000e+000
      vertex  1.247204e+000 -8.333554e-001  7.000000e+000
      vertex  1.662939e+000 -1.111140e+000  7.000000e+000
    endloop
  endfacet
  facet normal  0.000000e+000  0.000000e+000  1.000000e+000
    outer loop
      vertex  1.662939e+000 -1.111140e+000  7.000000e+000
      vertex  1.247204e+000 -8.333554e-001  7.000000e+000
      vertex  1.060660e+000 -1.060660e+000  7.000000e+000
    endloop
  endfacet
  facet normal  0.000000e+000  0.000000e+000  1.000000e+000
    outer loop
      vertex  1.662939e+000 -1.111140e+000  7.000000e+000
      vertex  1.060660e+000 -1.060660e+000  7.000000e+000
      vertex  1.414214e+000 -1.414214e+000  7.000000e+000
    endloop
  endfacet
  facet normal  0.000000e+000  0.000000e+000  1.000000e+000
    outer loop
      vertex  1.414214e+000 -1.414214e+000  7.000000e+000
      vertex  1.060660e+000 -1.060660e+000  7.000000e+000
      vertex  8.333554e-001 -1.247204e+000  7.000000e+000
    endloop
  endfacet
  facet normal  0.000000e+000  0.000000e+000 -9.999999e-001
    outer loop
      vertex -1.060660e+000  1.060660e+000  0.000000e+000
      vertex -1.662939e+000  1.111140e+000  0.000000e+000
      vertex -8.333554e-001  1.247204e+000  0.000000e+000
    endloop
  endfacet
  facet normal  0.000000e+000  0.000000e+000 -1.000000e+000
    outer loop
      vertex -7.653669e-001 -1.847759e+000  0.000000e+000
      vertex -1.111140e+000 -1.662939e+000  0.000000e+000
      vertex -3.673819e-016 -2.000000e+000  0.000000e+000
    endloop
  endfacet
  facet normal  0.000000e+000  0.000000e+000 -1.000000e+000
    outer loop
      vertex -3.901806e-001 -1.961571e+000  0.000000e+000
      vertex -7.653669e-001 -1.847759e+000  0.000000e+000
      vertex -3.673819e-016 -2.000000e+000  0.000000e+000
    endloop
  endfacet
  facet normal  0.000000e+000  0.000000e+000 -9.999999e-001
    outer loop
      vertex  1.662939e+000  1.111140e+000  0.000000e+000
      vertex  1.060660e+000  1.060660e+000  0.000000e+000
      vertex  8.333554e-001  1.247204e+000  0.000000e+000
    endloop
  endfacet
  facet normal  -0.000000e+000  0.000000e+000 -1.000000e+000
    outer loop
      vertex  1.111140e+000 -1.662939e+000  0.000000e+000
      vertex  7.653669e-001 -1.847759e+000  0.000000e+000
      vertex -3.673819e-016 -2.000000e+000  0.000000e+000
    endloop
  endfacet
  facet normal  -0.000000e+000  0.000000e+000 -1.000000e+000
    outer loop
      vertex  7.653669e-001 -1.847759e+000  0.000000e+000
      vertex  3.901806e-001 -1.961571e+000  0.000000e+000
      vertex -3.673819e-016 -2.000000e+000  0.000000e+000
    endloop
  endfacet
  facet normal  -0.000000e+000  0.000000e+000 -1.000000e+000
    outer loop
      vertex  9.184548e-017  1.500000e+000  0.000000e+000
      vertex -2.926355e-001  1.471178e+000  0.000000e+000
      vertex -1.414214e+000  1.414214e+000  0.000000e+000
    endloop
  endfacet
  facet normal  0.000000e+000  0.000000e+000 -1.000000e+000
    outer loop
      vertex  9.184548e-017  1.500000e+000  0.000000e+000
      vertex -1.414214e+000  1.414214e+000  0.000000e+000
      vertex -1.111140e+000  1.662939e+000  0.000000e+000
    endloop
  endfacet
  facet normal  0.000000e+000  0.000000e+000 -1.000000e+000
    outer loop
      vertex  9.184548e-017  1.500000e+000  0.000000e+000
      vertex -1.111140e+000  1.662939e+000  0.000000e+000
      vertex -7.653669e-001  1.847759e+000  0.000000e+000
    endloop
  endfacet
  facet normal  0.000000e+000  0.000000e+000 -1.000000e+000
    outer loop
      vertex  9.184548e-017  1.500000e+000  0.000000e+000
      vertex -7.653669e-001  1.847759e+000  0.000000e+000
      vertex -3.901806e-001  1.961571e+000  0.000000e+000
    endloop
  endfacet
  facet normal  0.000000e+000  0.000000e+000 -9.999999e-001
    outer loop
      vertex  9.184548e-017  1.500000e+000  0.000000e+000
      vertex -3.901806e-001  1.961571e+000  0.000000e+000
      vertex  1.224606e-016  2.000000e+000  0.000000e+000
    endloop
  endfacet
  facet normal  0.000000e+000  -0.000000e+000 -9.999999e-001
    outer loop
      vertex  9.184548e-017  1.500000e+000  0.000000e+000
      vertex  1.224606e-016  2.000000e+000  0.000000e+000
      vertex  3.901806e-001  1.961571e+000  0.000000e+000
    endloop
  endfacet
  facet normal  0.000000e+000  -0.000000e+000 -1.000000e+000
    outer loop
      vertex  9.184548e-017  1.500000e+000  0.000000e+000
      vertex  3.901806e-001  1.961571e+000  0.000000e+000
      vertex  7.653669e-001  1.847759e+000  0.000000e+000
    endloop
  endfacet
  facet normal  0.000000e+000  -0.000000e+000 -1.000000e+000
    outer loop
      vertex  9.184548e-017  1.500000e+000  0.000000e+000
      vertex  7.653669e-001  1.847759e+000  0.000000e+000
      vertex  1.111140e+000  1.662939e+000  0.000000e+000
    endloop
  endfacet
  facet normal  0.000000e+000  -0.000000e+000 -1.000000e+000
    outer loop
      vertex  9.184548e-017  1.500000e+000  0.000000e+000
      vertex  1.111140e+000  1.662939e+000  0.000000e+000
      vertex  1.414214e+000  1.414214e+000  0.000000e+000
    endloop
  endfacet
  facet normal  0.000000e+000  0.000000e+000 -1.000000e+000
    outer loop
      vertex  9.184548e-017  1.500000e+000  0.000000e+000
      vertex  1.414214e+000  1.414214e+000  0.000000e+000
      vertex  2.926355e-001  1.471178e+000  0.000000e+000
    endloop
  endfacet
  facet normal  0.000000e+000  0.000000e+000 -1.000000e+000
    outer loop
      vertex -2.926355e-001  1.471178e+000  0.000000e+000
      vertex -5.740252e-001  1.385819e+000  0.000000e+000
      vertex -1.414214e+000  1.414214e+000  0.000000e+000
    endloop
  endfacet
  facet normal  0.000000e+000  0.000000e+000 -1.000000e+000
    outer loop
      vertex -1.414214e+000  1.414214e+000  0.000000e+000
      vertex -5.740252e-001  1.385819e+000  0.000000e+000
      vertex -8.333554e-001  1.247204e+000  0.000000e+000
    endloop
  endfacet
  facet normal  -0.000000e+000  0.000000e+000 -1.000000e+000
    outer loop
      vertex -1.414214e+000  1.414214e+000  0.000000e+000
      vertex -8.333554e-001  1.247204e+000  0.000000e+000
      vertex -1.662939e+000  1.111140e+000  0.000000e+000
    endloop
  endfacet
  facet normal  0.000000e+000  0.000000e+000 -1.000000e+000
    outer loop
      vertex -1.471178e+000  2.926355e-001  0.000000e+000
      vertex -1.961571e+000  3.901806e-001  0.000000e+000
      vertex -1.385819e+000  5.740252e-001  0.000000e+000
    endloop
  endfacet
  facet normal  -0.000000e+000  0.000000e+000 -1.000000e+000
    outer loop
      vertex -1.385819e+000  5.740252e-001  0.000000e+000
      vertex -1.961571e+000  3.901806e-001  0.000000e+000
      vertex -1.847759e+000  7.653669e-001  0.000000e+000
    endloop
  endfacet
  facet normal  0.000000e+000  0.000000e+000 -1.000000e+000
    outer loop
      vertex -1.385819e+000  5.740252e-001  0.000000e+000
      vertex -1.847759e+000  7.653669e-001  0.000000e+000
      vertex -1.247204e+000  8.333554e-001  0.000000e+000
    endloop
  endfacet
  facet normal  -0.000000e+000  0.000000e+000 -9.999999e-001
    outer loop
      vertex -1.247204e+000  8.333554e-001  0.000000e+000
      vertex -1.847759e+000  7.653669e-001  0.000000e+000
      vertex -1.662939e+000  1.111140e+000  0.000000e+000
    endloop
  endfacet
  facet normal  0.000000e+000  0.000000e+000 -1.000000e+000
    outer loop
      vertex -1.247204e+000  8.333554e-001  0.000000e+000
      vertex -1.662939e+000  1.111140e+000  0.000000e+000
      vertex -1.060660e+000  1.060660e+000  0.000000e+000
    endloop
  endfacet
  facet normal  0.000000e+000  0.000000e+000 -1.000000e+000
    outer loop
      vertex -1.247204e+000 -8.333554e-001  0.000000e+000
      vertex -1.847759e+000 -7.653669e-001  0.000000e+000
      vertex -1.385819e+000 -5.740252e-001  0.000000e+000
    endloop
  endfacet
  facet normal  -0.000000e+000  0.000000e+000 -1.000000e+000
    outer loop
      vertex -1.385819e+000 -5.740252e-001  0.000000e+000
      vertex -1.847759e+000 -7.653669e-001  0.000000e+000
      vertex -1.961571e+000 -3.901806e-001  0.000000e+000
    endloop
  endfacet
  facet normal  0.000000e+000  0.000000e+000 -1.000000e+000
    outer loop
      vertex -1.385819e+000 -5.740252e-001  0.000000e+000
      vertex -1.961571e+000 -3.901806e-001  0.000000e+000
      vertex -1.471178e+000 -2.926355e-001  0.000000e+000
    endloop
  endfacet
  facet normal  -0.000000e+000  0.000000e+000 -1.000000e+000
    outer loop
      vertex -1.471178e+000 -2.926355e-001  0.000000e+000
      vertex -1.961571e+000 -3.901806e-001  0.000000e+000
      vertex -2.000000e+000  2.449213e-016  0.000000e+000
    endloop
  endfacet
  facet normal  0.000000e+000  0.000000e+000 -1.000000e+000
    outer loop
      vertex -1.471178e+000 -2.926355e-001  0.000000e+000
      vertex -2.000000e+000  2.449213e-016  0.000000e+000
      vertex -1.500000e+000  1.836910e-016  0.000000e+000
    endloop
  endfacet
  facet normal  0.000000e+000  0.000000e+000 -9.999999e-001
    outer loop
      vertex -1.500000e+000  1.836910e-016  0.000000e+000
      vertex -2.000000e+000  2.449213e-016  0.000000e+000
      vertex -1.961571e+000  3.901806e-001  0.000000e+000
    endloop
  endfacet
  facet normal  0.000000e+000  0.000000e+000 -1.000000e+000
    outer loop
      vertex -1.500000e+000  1.836910e-016  0.000000e+000
      vertex -1.961571e+000  3.901806e-001  0.000000e+000
      vertex -1.471178e+000  2.926355e-001  0.000000e+000
    endloop
  endfacet
  facet normal  0.000000e+000  0.000000e+000 -1.000000e+000
    outer loop
      vertex -5.740252e-001 -1.385819e+000  0.000000e+000
      vertex -1.414214e+000 -1.414214e+000  0.000000e+000
      vertex -8.333554e-001 -1.247204e+000  0.000000e+000
    endloop
  endfacet
  facet normal  -0.000000e+000  0.000000e+000 -1.000000e+000
    outer loop
      vertex -8.333554e-001 -1.247204e+000  0.000000e+000
      vertex -1.414214e+000 -1.414214e+000  0.000000e+000
      vertex -1.662939e+000 -1.111140e+000  0.000000e+000
    endloop
  endfacet
  facet normal  0.000000e+000  0.000000e+000 -9.999999e-001
    outer loop
      vertex -8.333554e-001 -1.247204e+000  0.000000e+000
      vertex -1.662939e+000 -1.111140e+000  0.000000e+000
      vertex -1.060660e+000 -1.060660e+000  0.000000e+000
    endloop
  endfacet
  facet normal  -0.000000e+000  0.000000e+000 -1.000000e+000
    outer loop
      vertex -1.060660e+000 -1.060660e+000  0.000000e+000
      vertex -1.662939e+000 -1.111140e+000  0.000000e+000
      vertex -1.847759e+000 -7.653669e-001  0.000000e+000
    endloop
  endfacet
  facet normal  0.000000e+000  0.000000e+000 -1.000000e+000
    outer loop
      vertex -1.060660e+000 -1.060660e+000  0.000000e+000
      vertex -1.847759e+000 -7.653669e-001  0.000000e+000
      vertex -1.247204e+000 -8.333554e-001  0.000000e+000
    endloop
  endfacet
  facet normal  0.000000e+000  0.000000e+000 -1.000000e+000
    outer loop
      vertex  8.333554e-001 -1.247204e+000  0.000000e+000
      vertex  1.414214e+000 -1.414214e+000  0.000000e+000
      vertex  5.740252e-001 -1.385819e+000  0.000000e+000
    endloop
  endfacet
  facet normal  0.000000e+000  0.000000e+000 -1.000000e+000
    outer loop
      vertex  5.740252e-001 -1.385819e+000  0.000000e+000
      vertex  1.414214e+000 -1.414214e+000  0.000000e+000
      vertex  1.111140e+000 -1.662939e+000  0.000000e+000
    endloop
  endfacet
  facet normal  0.000000e+000  0.000000e+000 -9.999999e-001
    outer loop
      vertex  5.740252e-001 -1.385819e+000  0.000000e+000
      vertex  1.111140e+000 -1.662939e+000  0.000000e+000
      vertex  2.926355e-001 -1.471178e+000  0.000000e+000
    endloop
  endfacet
  facet normal  0.000000e+000  -0.000000e+000 -9.999999e-001
    outer loop
      vertex  2.926355e-001 -1.471178e+000  0.000000e+000
      vertex  1.111140e+000 -1.662939e+000  0.000000e+000
      vertex -3.673819e-016 -2.000000e+000  0.000000e+000
    endloop
  endfacet
  facet normal  0.000000e+000  0.000000e+000 -1.000000e+000
    outer loop
      vertex  2.926355e-001 -1.471178e+000  0.000000e+000
      vertex -3.673819e-016 -2.000000e+000  0.000000e+000
      vertex -2.755364e-016 -1.500000e+000  0.000000e+000
    endloop
  endfacet
  facet normal  0.000000e+000  0.000000e+000 -1.000000e+000
    outer loop
      vertex -2.755364e-016 -1.500000e+000  0.000000e+000
      vertex -3.673819e-016 -2.000000e+000  0.000000e+000
      vertex -1.111140e+000 -1.662939e+000  0.000000e+000
    endloop
  endfacet
  facet normal  0.000000e+000  0.000000e+000 -1.000000e+000
    outer loop
      vertex -2.755364e-016 -1.500000e+000  0.000000e+000
      vertex -1.111140e+000 -1.662939e+000  0.000000e+000
      vertex -2.926355e-001 -1.471178e+000  0.000000e+000
    endloop
  endfacet
  facet normal  -0.000000e+000  0.000000e+000 -1.000000e+000
    outer loop
      vertex -2.926355e-001 -1.471178e+000  0.000000e+000
      vertex -1.111140e+000 -1.662939e+000  0.000000e+000
      vertex -1.414214e+000 -1.414214e+000  0.000000e+000
    endloop
  endfacet
  facet normal  0.000000e+000  0.000000e+000 -1.000000e+000
    outer loop
      vertex -2.926355e-001 -1.471178e+000  0.000000e+000
      vertex -1.414214e+000 -1.414214e+000  0.000000e+000
      vertex -5.740252e-001 -1.385819e+000  0.000000e+000
    endloop
  endfacet
  facet normal  -0.000000e+000  0.000000e+000 -1.000000e+000
    outer loop
      vertex  2.926355e-001  1.471178e+000  0.000000e+000
      vertex  1.414214e+000  1.414214e+000  0.000000e+000
      vertex  5.740252e-001  1.385819e+000  0.000000e+000
    endloop
  endfacet
  facet normal  0.000000e+000  0.000000e+000 -1.000000e+000
    outer loop
      vertex  5.740252e-001  1.385819e+000  0.000000e+000
      vertex  1.414214e+000  1.414214e+000  0.000000e+000
      vertex  1.662939e+000  1.111140e+000  0.000000e+000
    endloop
  endfacet
  facet normal  0.000000e+000  0.000000e+000 -1.000000e+000
    outer loop
      vertex  5.740252e-001  1.385819e+000  0.000000e+000
      vertex  1.662939e+000  1.111140e+000  0.000000e+000
      vertex  8.333554e-001  1.247204e+000  0.000000e+000
    endloop
  endfacet
  facet normal  0.000000e+000  0.000000e+000 -1.000000e+000
    outer loop
      vertex  1.471178e+000  2.926355e-001  0.000000e+000
      vertex  1.385819e+000  5.740252e-001  0.000000e+000
      vertex  1.961571e+000  3.901806e-001  0.000000e+000
    endloop
  endfacet
  facet normal  0.000000e+000  0.000000e+000 -9.999999e-001
    outer loop
      vertex  1.961571e+000  3.901806e-001  0.000000e+000
      vertex  1.385819e+000  5.740252e-001  0.000000e+000
      vertex  1.247204e+000  8.333554e-001  0.000000e+000
    endloop
  endfacet
  facet normal  0.000000e+000  0.000000e+000 -1.000000e+000
    outer loop
      vertex  1.961571e+000  3.901806e-001  0.000000e+000
      vertex  1.247204e+000  8.333554e-001  0.000000e+000
      vertex  1.847759e+000  7.653669e-001  0.000000e+000
    endloop
  endfacet
  facet normal  0.000000e+000  0.000000e+000 -1.000000e+000
    outer loop
      vertex  1.847759e+000  7.653669e-001  0.000000e+000
      vertex  1.247204e+000  8.333554e-001  0.000000e+000
      vertex  1.060660e+000  1.060660e+000  0.000000e+000
    endloop
  endfacet
  facet normal  0.000000e+000  0.000000e+000 -1.000000e+000
    outer loop
      vertex  1.847759e+000  7.653669e-001  0.000000e+000
      vertex  1.060660e+000  1.060660e+000  0.000000e+000
      vertex  1.662939e+000  1.111140e+000  0.000000e+000
    endloop
  endfacet
  facet normal  0.000000e+000  -0.000000e+000 -1.000000e+000
    outer loop
      vertex  1.247204e+000 -8.333554e-001  0.000000e+000
      vertex  1.385819e+000 -5.740252e-001  0.000000e+000
      vertex  1.847759e+000 -7.653669e-001  0.000000e+000
    endloop
  endfacet
  facet normal  0.000000e+000  0.000000e+000 -1.000000e+000
    outer loop
      vertex  1.847759e+000 -7.653669e-001  0.000000e+000
      vertex  1.385819e+000 -5.740252e-001  0.000000e+000
      vertex  1.471178e+000 -2.926355e-001  0.000000e+000
    endloop
  endfacet
  facet normal  0.000000e+000  0.000000e+000 -1.000000e+000
    outer loop
      vertex  1.847759e+000 -7.653669e-001  0.000000e+000
      vertex  1.471178e+000 -2.926355e-001  0.000000e+000
      vertex  1.961571e+000 -3.901806e-001  0.000000e+000
    endloop
  endfacet
  facet normal  0.000000e+000  0.000000e+000 -1.000000e+000
    outer loop
      vertex  1.961571e+000 -3.901806e-001  0.000000e+000
      vertex  1.471178e+000 -2.926355e-001  0.000000e+000
      vertex  1.500000e+000  0.000000e+000  0.000000e+000
    endloop
  endfacet
  facet normal  0.000000e+000  0.000000e+000 -9.999999e-001
    outer loop
      vertex  1.961571e+000 -3.901806e-001  0.000000e+000
      vertex  1.500000e+000  0.000000e+000  0.000000e+000
      vertex  2.000000e+000  0.000000e+000  0.000000e+000
    endloop
  endfacet
  facet normal  0.000000e+000  0.000000e+000 -1.000000e+000
    outer loop
      vertex  2.000000e+000  0.000000e+000  0.000000e+000
      vertex  1.500000e+000  0.000000e+000  0.000000e+000
      vertex  1.471178e+000  2.926355e-001  0.000000e+000
    endloop
  endfacet
  facet normal  0.000000e+000  0.000000e+000 -1.000000e+000
    outer loop
      vertex  2.000000e+000  0.000000e+000  0.000000e+000
      vertex  1.471178e+000  2.926355e-001  0.000000e+000
      vertex  1.961571e+000  3.901806e-001  0.000000e+000
    endloop
  endfacet
  facet normal  0.000000e+000  0.000000e+000 -9.999999e-001
    outer loop
      vertex  1.847759e+000 -7.653669e-001  0.000000e+000
      vertex  1.662939e+000 -1.111140e+000  0.000000e+000
      vertex  1.247204e+000 -8.333554e-001  0.000000e+000
    endloop
  endfacet
  facet normal  0.000000e+000  -0.000000e+000 -1.000000e+000
    outer loop
      vertex  1.247204e+000 -8.333554e-001  0.000000e+000
      vertex  1.662939e+000 -1.111140e+000  0.000000e+000
      vertex  1.060660e+000 -1.060660e+000  0.000000e+000
    endloop
  endfacet
  facet normal  0.000000e+000  0.000000e+000 -1.000000e+000
    outer loop
      vertex  1.662939e+000 -1.111140e+000  0.000000e+000
      vertex  1.414214e+000 -1.414214e+000  0.000000e+000
      vertex  1.060660e+000 -1.060660e+000  0.000000e+000
    endloop
  endfacet
  facet normal  0.000000e+000  -0.000000e+000 -1.000000e+000
    outer loop
      vertex  1.060660e+000 -1.060660e+000  0.000000e+000
      vertex  1.414214e+000 -1.414214e+000  0.000000e+000
      vertex  8.333554e-001 -1.247204e+000  0.000000e+000
    endloop
  endfacet
  facet normal  9.801709e-002 -9.951847e-001  0.000000e+000
    outer loop
      vertex  9.184548e-017  1.500000e+000  0.000000e+000
      vertex -2.926355e-001  1.471178e+000  7.000000e+000
      vertex -2.926355e-001  1.471178e+000  0.000000e+000
    endloop
  endfacet
  facet normal  2.902846e-001 -9.569403e-001  0.000000e+000
    outer loop
      vertex -2.926355e-001  1.471178e+000  0.000000e+000
      vertex -2.926355e-001  1.471178e+000  7.000000e+000
      vertex -5.740252e-001  1.385819e+000  7.000000e+000
    endloop
  endfacet
  facet normal  2.902846e-001 -9.569403e-001  0.000000e+000
    outer loop
      vertex -2.926355e-001  1.471178e+000  0.000000e+000
      vertex -5.740252e-001  1.385819e+000  7.000000e+000
      vertex -5.740252e-001  1.385819e+000  0.000000e+000
    endloop
  endfacet
  facet normal  4.713967e-001 -8.819212e-001  0.000000e+000
    outer loop
      vertex -5.740252e-001  1.385819e+000  0.000000e+000
      vertex -5.740252e-001  1.385819e+000  7.000000e+000
      vertex -8.333554e-001  1.247204e+000  7.000000e+000
    endloop
  endfacet
  facet normal  4.713967e-001 -8.819212e-001  0.000000e+000
    outer loop
      vertex -5.740252e-001  1.385819e+000  0.000000e+000
      vertex -8.333554e-001  1.247204e+000  7.000000e+000
      vertex -8.333554e-001  1.247204e+000  0.000000e+000
    endloop
  endfacet
  facet normal  6.343935e-001 -7.730103e-001  0.000000e+000
    outer loop
      vertex -8.333554e-001  1.247204e+000  0.000000e+000
      vertex -8.333554e-001  1.247204e+000  7.000000e+000
      vertex -1.060660e+000  1.060660e+000  7.000000e+000
    endloop
  endfacet
  facet normal  6.343935e-001 -7.730103e-001  0.000000e+000
    outer loop
      vertex -8.333554e-001  1.247204e+000  0.000000e+000
      vertex -1.060660e+000  1.060660e+000  7.000000e+000
      vertex -1.060660e+000  1.060660e+000  0.000000e+000
    endloop
  endfacet
  facet normal  7.730103e-001 -6.343935e-001  0.000000e+000
    outer loop
      vertex -1.060660e+000  1.060660e+000  0.000000e+000
      vertex -1.060660e+000  1.060660e+000  7.000000e+000
      vertex -1.247204e+000  8.333554e-001  7.000000e+000
    endloop
  endfacet
  facet normal  7.730103e-001 -6.343935e-001  0.000000e+000
    outer loop
      vertex -1.060660e+000  1.060660e+000  0.000000e+000
      vertex -1.247204e+000  8.333554e-001  7.000000e+000
      vertex -1.247204e+000  8.333554e-001  0.000000e+000
    endloop
  endfacet
  facet normal  8.819212e-001 -4.713967e-001  0.000000e+000
    outer loop
      vertex -1.247204e+000  8.333554e-001  0.000000e+000
      vertex -1.247204e+000  8.333554e-001  7.000000e+000
      vertex -1.385819e+000  5.740252e-001  7.000000e+000
    endloop
  endfacet
  facet normal  8.819212e-001 -4.713967e-001  0.000000e+000
    outer loop
      vertex -1.247204e+000  8.333554e-001  0.000000e+000
      vertex -1.385819e+000  5.740252e-001  7.000000e+000
      vertex -1.385819e+000  5.740252e-001  0.000000e+000
    endloop
  endfacet
  facet normal  9.569403e-001 -2.902846e-001  0.000000e+000
    outer loop
      vertex -1.385819e+000  5.740252e-001  0.000000e+000
      vertex -1.385819e+000  5.740252e-001  7.000000e+000
      vertex -1.471178e+000  2.926355e-001  7.000000e+000
    endloop
  endfacet
  facet normal  9.569403e-001 -2.902846e-001  0.000000e+000
    outer loop
      vertex -1.385819e+000  5.740252e-001  0.000000e+000
      vertex -1.471178e+000  2.926355e-001  7.000000e+000
      vertex -1.471178e+000  2.926355e-001  0.000000e+000
    endloop
  endfacet
  facet normal  9.951847e-001 -9.801709e-002  0.000000e+000
    outer loop
      vertex -1.471178e+000  2.926355e-001  0.000000e+000
      vertex -1.471178e+000  2.926355e-001  7.000000e+000
      vertex -1.500000e+000  1.836910e-016  7.000000e+000
    endloop
  endfacet
  facet normal  9.951847e-001 -9.801709e-002  0.000000e+000
    outer loop
      vertex -1.471178e+000  2.926355e-001  0.000000e+000
      vertex -1.500000e+000  1.836910e-016  7.000000e+000
      vertex -1.500000e+000  1.836910e-016  0.000000e+000
    endloop
  endfacet
  facet normal  9.801709e-002 -9.951847e-001  0.000000e+000
    outer loop
      vertex -2.926355e-001  1.471178e+000  7.000000e+000
      vertex  9.184548e-017  1.500000e+000  0.000000e+000
      vertex  9.184548e-017  1.500000e+000  7.000000e+000
    endloop
  endfacet
  facet normal -9.801709e-002 -9.951847e-001  -0.000000e+000
    outer loop
      vertex  9.184548e-017  1.500000e+000  7.000000e+000
      vertex  9.184548e-017  1.500000e+000  0.000000e+000
      vertex  2.926355e-001  1.471178e+000  0.000000e+000
    endloop
  endfacet
  facet normal -9.801709e-002 -9.951847e-001  0.000000e+000
    outer loop
      vertex  9.184548e-017  1.500000e+000  7.000000e+000
      vertex  2.926355e-001  1.471178e+000  0.000000e+000
      vertex  2.926355e-001  1.471178e+000  7.000000e+000
    endloop
  endfacet
  facet normal -2.902846e-001 -9.569403e-001  -0.000000e+000
    outer loop
      vertex  2.926355e-001  1.471178e+000  7.000000e+000
      vertex  2.926355e-001  1.471178e+000  0.000000e+000
      vertex  5.740252e-001  1.385819e+000  0.000000e+000
    endloop
  endfacet
  facet normal -2.902846e-001 -9.569403e-001  0.000000e+000
    outer loop
      vertex  2.926355e-001  1.471178e+000  7.000000e+000
      vertex  5.740252e-001  1.385819e+000  0.000000e+000
      vertex  5.740252e-001  1.385819e+000  7.000000e+000
    endloop
  endfacet
  facet normal -4.713967e-001 -8.819212e-001  -0.000000e+000
    outer loop
      vertex  5.740252e-001  1.385819e+000  7.000000e+000
      vertex  5.740252e-001  1.385819e+000  0.000000e+000
      vertex  8.333554e-001  1.247204e+000  0.000000e+000
    endloop
  endfacet
  facet normal -4.713967e-001 -8.819212e-001  0.000000e+000
    outer loop
      vertex  5.740252e-001  1.385819e+000  7.000000e+000
      vertex  8.333554e-001  1.247204e+000  0.000000e+000
      vertex  8.333554e-001  1.247204e+000  7.000000e+000
    endloop
  endfacet
  facet normal -6.343935e-001 -7.730103e-001  -0.000000e+000
    outer loop
      vertex  8.333554e-001  1.247204e+000  7.000000e+000
      vertex  8.333554e-001  1.247204e+000  0.000000e+000
      vertex  1.060660e+000  1.060660e+000  0.000000e+000
    endloop
  endfacet
  facet normal -6.343935e-001 -7.730103e-001  0.000000e+000
    outer loop
      vertex  8.333554e-001  1.247204e+000  7.000000e+000
      vertex  1.060660e+000  1.060660e+000  0.000000e+000
      vertex  1.060660e+000  1.060660e+000  7.000000e+000
    endloop
  endfacet
  facet normal -7.730103e-001 -6.343935e-001  -0.000000e+000
    outer loop
      vertex  1.060660e+000  1.060660e+000  7.000000e+000
      vertex  1.060660e+000  1.060660e+000  0.000000e+000
      vertex  1.247204e+000  8.333554e-001  0.000000e+000
    endloop
  endfacet
  facet normal -7.730103e-001 -6.343935e-001  0.000000e+000
    outer loop
      vertex  1.060660e+000  1.060660e+000  7.000000e+000
      vertex  1.247204e+000  8.333554e-001  0.000000e+000
      vertex  1.247204e+000  8.333554e-001  7.000000e+000
    endloop
  endfacet
  facet normal -8.819212e-001 -4.713967e-001  -0.000000e+000
    outer loop
      vertex  1.247204e+000  8.333554e-001  7.000000e+000
      vertex  1.247204e+000  8.333554e-001  0.000000e+000
      vertex  1.385819e+000  5.740252e-001  0.000000e+000
    endloop
  endfacet
  facet normal -8.819212e-001 -4.713967e-001  0.000000e+000
    outer loop
      vertex  1.247204e+000  8.333554e-001  7.000000e+000
      vertex  1.385819e+000  5.740252e-001  0.000000e+000
      vertex  1.385819e+000  5.740252e-001  7.000000e+000
    endloop
  endfacet
  facet normal -9.569403e-001 -2.902846e-001  -0.000000e+000
    outer loop
      vertex  1.385819e+000  5.740252e-001  7.000000e+000
      vertex  1.385819e+000  5.740252e-001  0.000000e+000
      vertex  1.471178e+000  2.926355e-001  0.000000e+000
    endloop
  endfacet
  facet normal -9.569403e-001 -2.902846e-001  0.000000e+000
    outer loop
      vertex  1.385819e+000  5.740252e-001  7.000000e+000
      vertex  1.471178e+000  2.926355e-001  0.000000e+000
      vertex  1.471178e+000  2.926355e-001  7.000000e+000
    endloop
  endfacet
  facet normal -9.951847e-001 -9.801709e-002  -0.000000e+000
    outer loop
      vertex  1.471178e+000  2.926355e-001  7.000000e+000
      vertex  1.471178e+000  2.926355e-001  0.000000e+000
      vertex  1.500000e+000  0.000000e+000  0.000000e+000
    endloop
  endfacet
  facet normal -9.951847e-001 -9.801709e-002  0.000000e+000
    outer loop
      vertex  1.471178e+000  2.926355e-001  7.000000e+000
      vertex  1.500000e+000  0.000000e+000  0.000000e+000
      vertex  1.500000e+000  0.000000e+000  7.000000e+000
    endloop
  endfacet
  facet normal -9.801709e-002  9.951847e-001  0.000000e+000
    outer loop
      vertex -2.755364e-016 -1.500000e+000  0.000000e+000
      vertex  2.926355e-001 -1.471178e+000  7.000000e+000
      vertex  2.926355e-001 -1.471178e+000  0.000000e+000
    endloop
  endfacet
  facet normal -2.902846e-001  9.569403e-001  0.000000e+000
    outer loop
      vertex  2.926355e-001 -1.471178e+000  0.000000e+000
      vertex  2.926355e-001 -1.471178e+000  7.000000e+000
      vertex  5.740252e-001 -1.385819e+000  7.000000e+000
    endloop
  endfacet
  facet normal -2.902846e-001  9.569403e-001  0.000000e+000
    outer loop
      vertex  2.926355e-001 -1.471178e+000  0.000000e+000
      vertex  5.740252e-001 -1.385819e+000  7.000000e+000
      vertex  5.740252e-001 -1.385819e+000  0.000000e+000
    endloop
  endfacet
  facet normal -4.713967e-001  8.819212e-001  0.000000e+000
    outer loop
      vertex  5.740252e-001 -1.385819e+000  0.000000e+000
      vertex  5.740252e-001 -1.385819e+000  7.000000e+000
      vertex  8.333554e-001 -1.247204e+000  7.000000e+000
    endloop
  endfacet
  facet normal -4.713967e-001  8.819212e-001  0.000000e+000
    outer loop
      vertex  5.740252e-001 -1.385819e+000  0.000000e+000
      vertex  8.333554e-001 -1.247204e+000  7.000000e+000
      vertex  8.333554e-001 -1.247204e+000  0.000000e+000
    endloop
  endfacet
  facet normal -6.343935e-001  7.730103e-001  0.000000e+000
    outer loop
      vertex  8.333554e-001 -1.247204e+000  0.000000e+000
      vertex  8.333554e-001 -1.247204e+000  7.000000e+000
      vertex  1.060660e+000 -1.060660e+000  7.000000e+000
    endloop
  endfacet
  facet normal -6.343935e-001  7.730103e-001  0.000000e+000
    outer loop
      vertex  8.333554e-001 -1.247204e+000  0.000000e+000
      vertex  1.060660e+000 -1.060660e+000  7.000000e+000
      vertex  1.060660e+000 -1.060660e+000  0.000000e+000
    endloop
  endfacet
  facet normal -7.730103e-001  6.343935e-001  0.000000e+000
    outer loop
      vertex  1.060660e+000 -1.060660e+000  0.000000e+000
      vertex  1.060660e+000 -1.060660e+000  7.000000e+000
      vertex  1.247204e+000 -8.333554e-001  7.000000e+000
    endloop
  endfacet
  facet normal -7.730103e-001  6.343935e-001  0.000000e+000
    outer loop
      vertex  1.060660e+000 -1.060660e+000  0.000000e+000
      vertex  1.247204e+000 -8.333554e-001  7.000000e+000
      vertex  1.247204e+000 -8.333554e-001  0.000000e+000
    endloop
  endfacet
  facet normal -8.819212e-001  4.713967e-001  0.000000e+000
    outer loop
      vertex  1.247204e+000 -8.333554e-001  0.000000e+000
      vertex  1.247204e+000 -8.333554e-001  7.000000e+000
      vertex  1.385819e+000 -5.740252e-001  7.000000e+000
    endloop
  endfacet
  facet normal -8.819212e-001  4.713967e-001  0.000000e+000
    outer loop
      vertex  1.247204e+000 -8.333554e-001  0.000000e+000
      vertex  1.385819e+000 -5.740252e-001  7.000000e+000
      vertex  1.385819e+000 -5.740252e-001  0.000000e+000
    endloop
  endfacet
  facet normal -9.569403e-001  2.902846e-001  0.000000e+000
    outer loop
      vertex  1.385819e+000 -5.740252e-001  0.000000e+000
      vertex  1.385819e+000 -5.740252e-001  7.000000e+000
      vertex  1.471178e+000 -2.926355e-001  7.000000e+000
    endloop
  endfacet
  facet normal -9.569403e-001  2.902846e-001  0.000000e+000
    outer loop
      vertex  1.385819e+000 -5.740252e-001  0.000000e+000
      vertex  1.471178e+000 -2.926355e-001  7.000000e+000
      vertex  1.471178e+000 -2.926355e-001  0.000000e+000
    endloop
  endfacet
  facet normal -9.951847e-001  9.801709e-002  0.000000e+000
    outer loop
      vertex  1.471178e+000 -2.926355e-001  0.000000e+000
      vertex  1.471178e+000 -2.926355e-001  7.000000e+000
      vertex  1.500000e+000  0.000000e+000  7.000000e+000
    endloop
  endfacet
  facet normal -9.951847e-001  9.801709e-002  0.000000e+000
    outer loop
      vertex  1.471178e+000 -2.926355e-001  0.000000e+000
      vertex  1.500000e+000  0.000000e+000  7.000000e+000
      vertex  1.500000e+000  0.000000e+000  0.000000e+000
    endloop
  endfacet
  facet normal -9.801709e-002  9.951847e-001  0.000000e+000
    outer loop
      vertex  2.926355e-001 -1.471178e+000  7.000000e+000
      vertex -2.755364e-016 -1.500000e+000  0.000000e+000
      vertex -2.755364e-016 -1.500000e+000  7.000000e+000
    endloop
  endfacet
  facet normal  9.801709e-002  9.951847e-001  0.000000e+000
    outer loop
      vertex -2.755364e-016 -1.500000e+000  7.000000e+000
      vertex -2.755364e-016 -1.500000e+000  0.000000e+000
      vertex -2.926355e-001 -1.471178e+000  0.000000e+000
    endloop
  endfacet
  facet normal  9.801709e-002  9.951847e-001  -0.000000e+000
    outer loop
      vertex -2.755364e-016 -1.500000e+000  7.000000e+000
      vertex -2.926355e-001 -1.471178e+000  0.000000e+000
      vertex -2.926355e-001 -1.471178e+000  7.000000e+000
    endloop
  endfacet
  facet normal  2.902846e-001  9.569403e-001  0.000000e+000
    outer loop
      vertex -2.926355e-001 -1.471178e+000  7.000000e+000
      vertex -2.926355e-001 -1.471178e+000  0.000000e+000
      vertex -5.740252e-001 -1.385819e+000  0.000000e+000
    endloop
  endfacet
  facet normal  2.902846e-001  9.569403e-001  -0.000000e+000
    outer loop
      vertex -2.926355e-001 -1.471178e+000  7.000000e+000
      vertex -5.740252e-001 -1.385819e+000  0.000000e+000
      vertex -5.740252e-001 -1.385819e+000  7.000000e+000
    endloop
  endfacet
  facet normal  4.713967e-001  8.819212e-001  0.000000e+000
    outer loop
      vertex -5.740252e-001 -1.385819e+000  7.000000e+000
      vertex -5.740252e-001 -1.385819e+000  0.000000e+000
      vertex -8.333554e-001 -1.247204e+000  0.000000e+000
    endloop
  endfacet
  facet normal  4.713967e-001  8.819212e-001  -0.000000e+000
    outer loop
      vertex -5.740252e-001 -1.385819e+000  7.000000e+000
      vertex -8.333554e-001 -1.247204e+000  0.000000e+000
      vertex -8.333554e-001 -1.247204e+000  7.000000e+000
    endloop
  endfacet
  facet normal  6.343935e-001  7.730103e-001  0.000000e+000
    outer loop
      vertex -8.333554e-001 -1.247204e+000  7.000000e+000
      vertex -8.333554e-001 -1.247204e+000  0.000000e+000
      vertex -1.060660e+000 -1.060660e+000  0.000000e+000
    endloop
  endfacet
  facet normal  6.343935e-001  7.730103e-001  -0.000000e+000
    outer loop
      vertex -8.333554e-001 -1.247204e+000  7.000000e+000
      vertex -1.060660e+000 -1.060660e+000  0.000000e+000
      vertex -1.060660e+000 -1.060660e+000  7.000000e+000
    endloop
  endfacet
  facet normal  7.730103e-001  6.343935e-001  0.000000e+000
    outer loop
      vertex -1.060660e+000 -1.060660e+000  7.000000e+000
      vertex -1.060660e+000 -1.060660e+000  0.000000e+000
      vertex -1.247204e+000 -8.333554e-001  0.000000e+000
    endloop
  endfacet
  facet normal  7.730103e-001  6.343935e-001  -0.000000e+000
    outer loop
      vertex -1.060660e+000 -1.060660e+000  7.000000e+000
      vertex -1.247204e+000 -8.333554e-001  0.000000e+000
      vertex -1.247204e+000 -8.333554e-001  7.000000e+000
    endloop
  endfacet
  facet normal  8.819212e-001  4.713967e-001  0.000000e+000
    outer loop
      vertex -1.247204e+000 -8.333554e-001  7.000000e+000
      vertex -1.247204e+000 -8.333554e-001  0.000000e+000
      vertex -1.385819e+000 -5.740252e-001  0.000000e+000
    endloop
  endfacet
  facet normal  8.819212e-001  4.713967e-001  -0.000000e+000
    outer loop
      vertex -1.247204e+000 -8.333554e-001  7.000000e+000
      vertex -1.385819e+000 -5.740252e-001  0.000000e+000
      vertex -1.385819e+000 -5.740252e-001  7.000000e+000
    endloop
  endfacet
  facet normal  9.569403e-001  2.902846e-001  0.000000e+000
    outer loop
      vertex -1.385819e+000 -5.740252e-001  7.000000e+000
      vertex -1.385819e+000 -5.740252e-001  0.000000e+000
      vertex -1.471178e+000 -2.926355e-001  0.000000e+000
    endloop
  endfacet
  facet normal  9.569403e-001  2.902846e-001  -0.000000e+000
    outer loop
      vertex -1.385819e+000 -5.740252e-001  7.000000e+000
      vertex -1.471178e+000 -2.926355e-001  0.000000e+000
      vertex -1.471178e+000 -2.926355e-001  7.000000e+000
    endloop
  endfacet
  facet normal  9.951847e-001  9.801709e-002  0.000000e+000
    outer loop
      vertex -1.471178e+000 -2.926355e-001  7.000000e+000
      vertex -1.471178e+000 -2.926355e-001  0.000000e+000
      vertex -1.500000e+000  1.836910e-016  0.000000e+000
    endloop
  endfacet
  facet normal  9.951847e-001  9.801709e-002  -0.000000e+000
    outer loop
      vertex -1.471178e+000 -2.926355e-001  7.000000e+000
      vertex -1.500000e+000  1.836910e-016  0.000000e+000
      vertex -1.500000e+000  1.836910e-016  7.000000e+000
    endloop
  endfacet
  facet normal  9.951847e-001 -9.801728e-002  0.000000e+000
    outer loop
      vertex  2.000000e+000  0.000000e+000  0.000000e+000
      vertex  2.000000e+000  0.000000e+000  7.000000e+000
      vertex  1.961571e+000 -3.901806e-001  0.000000e+000
    endloop
  endfacet
  facet normal  9.951847e-001 -9.801728e-002  0.000000e+000
    outer loop
      vertex  1.961571e+000 -3.901806e-001  0.000000e+000
      vertex  2.000000e+000  0.000000e+000  7.000000e+000
      vertex  1.961571e+000 -3.901806e-001  7.000000e+000
    endloop
  endfacet
  facet normal  9.569403e-001 -2.902847e-001  0.000000e+000
    outer loop
      vertex  1.961571e+000 -3.901806e-001  0.000000e+000
      vertex  1.961571e+000 -3.901806e-001  7.000000e+000
      vertex  1.847759e+000 -7.653669e-001  0.000000e+000
    endloop
  endfacet
  facet normal  9.569403e-001 -2.902847e-001  0.000000e+000
    outer loop
      vertex  1.847759e+000 -7.653669e-001  0.000000e+000
      vertex  1.961571e+000 -3.901806e-001  7.000000e+000
      vertex  1.847759e+000 -7.653669e-001  7.000000e+000
    endloop
  endfacet
  facet normal  8.819212e-001 -4.713966e-001  0.000000e+000
    outer loop
      vertex  1.847759e+000 -7.653669e-001  0.000000e+000
      vertex  1.847759e+000 -7.653669e-001  7.000000e+000
      vertex  1.662939e+000 -1.111140e+000  0.000000e+000
    endloop
  endfacet
  facet normal  8.819212e-001 -4.713966e-001  0.000000e+000
    outer loop
      vertex  1.662939e+000 -1.111140e+000  0.000000e+000
      vertex  1.847759e+000 -7.653669e-001  7.000000e+000
      vertex  1.662939e+000 -1.111140e+000  7.000000e+000
    endloop
  endfacet
  facet normal  7.730104e-001 -6.343933e-001  0.000000e+000
    outer loop
      vertex  1.662939e+000 -1.111140e+000  0.000000e+000
      vertex  1.662939e+000 -1.111140e+000  7.000000e+000
      vertex  1.414214e+000 -1.414214e+000  0.000000e+000
    endloop
  endfacet
  facet normal  7.730104e-001 -6.343933e-001  0.000000e+000
    outer loop
      vertex  1.414214e+000 -1.414214e+000  0.000000e+000
      vertex  1.662939e+000 -1.111140e+000  7.000000e+000
      vertex  1.414214e+000 -1.414214e+000  7.000000e+000
    endloop
  endfacet
  facet normal  6.343933e-001 -7.730104e-001  0.000000e+000
    outer loop
      vertex  1.414214e+000 -1.414214e+000  0.000000e+000
      vertex  1.414214e+000 -1.414214e+000  7.000000e+000
      vertex  1.111140e+000 -1.662939e+000  0.000000e+000
    endloop
  endfacet
  facet normal  6.343933e-001 -7.730104e-001  0.000000e+000
    outer loop
      vertex  1.111140e+000 -1.662939e+000  0.000000e+000
      vertex  1.414214e+000 -1.414214e+000  7.000000e+000
      vertex  1.111140e+000 -1.662939e+000  7.000000e+000
    endloop
  endfacet
  facet normal  4.713966e-001 -8.819212e-001  0.000000e+000
    outer loop
      vertex  1.111140e+000 -1.662939e+000  0.000000e+000
      vertex  1.111140e+000 -1.662939e+000  7.000000e+000
      vertex  7.653669e-001 -1.847759e+000  0.000000e+000
    endloop
  endfacet
  facet normal  4.713966e-001 -8.819212e-001  0.000000e+000
    outer loop
      vertex  7.653669e-001 -1.847759e+000  0.000000e+000
      vertex  1.111140e+000 -1.662939e+000  7.000000e+000
      vertex  7.653669e-001 -1.847759e+000  7.000000e+000
    endloop
  endfacet
  facet normal  2.902847e-001 -9.569403e-001  0.000000e+000
    outer loop
      vertex  7.653669e-001 -1.847759e+000  0.000000e+000
      vertex  7.653669e-001 -1.847759e+000  7.000000e+000
      vertex  3.901806e-001 -1.961571e+000  0.000000e+000
    endloop
  endfacet
  facet normal  2.902847e-001 -9.569403e-001  0.000000e+000
    outer loop
      vertex  3.901806e-001 -1.961571e+000  0.000000e+000
      vertex  7.653669e-001 -1.847759e+000  7.000000e+000
      vertex  3.901806e-001 -1.961571e+000  7.000000e+000
    endloop
  endfacet
  facet normal  9.801728e-002 -9.951847e-001  0.000000e+000
    outer loop
      vertex  3.901806e-001 -1.961571e+000  0.000000e+000
      vertex  3.901806e-001 -1.961571e+000  7.000000e+000
      vertex -3.673819e-016 -2.000000e+000  0.000000e+000
    endloop
  endfacet
  facet normal  9.801728e-002 -9.951847e-001  0.000000e+000
    outer loop
      vertex -3.673819e-016 -2.000000e+000  0.000000e+000
      vertex  3.901806e-001 -1.961571e+000  7.000000e+000
      vertex -3.673819e-016 -2.000000e+000  7.000000e+000
    endloop
  endfacet
  facet normal -9.801728e-002 -9.951847e-001  -0.000000e+000
    outer loop
      vertex -3.673819e-016 -2.000000e+000  0.000000e+000
      vertex -3.673819e-016 -2.000000e+000  7.000000e+000
      vertex -3.901806e-001 -1.961571e+000  0.000000e+000
    endloop
  endfacet
  facet normal -9.801728e-002 -9.951847e-001  0.000000e+000
    outer loop
      vertex -3.901806e-001 -1.961571e+000  0.000000e+000
      vertex -3.673819e-016 -2.000000e+000  7.000000e+000
      vertex -3.901806e-001 -1.961571e+000  7.000000e+000
    endloop
  endfacet
  facet normal -2.902847e-001 -9.569403e-001  -0.000000e+000
    outer loop
      vertex -3.901806e-001 -1.961571e+000  0.000000e+000
      vertex -3.901806e-001 -1.961571e+000  7.000000e+000
      vertex -7.653669e-001 -1.847759e+000  0.000000e+000
    endloop
  endfacet
  facet normal -2.902847e-001 -9.569403e-001  0.000000e+000
    outer loop
      vertex -7.653669e-001 -1.847759e+000  0.000000e+000
      vertex -3.901806e-001 -1.961571e+000  7.000000e+000
      vertex -7.653669e-001 -1.847759e+000  7.000000e+000
    endloop
  endfacet
  facet normal -4.713966e-001 -8.819212e-001  -0.000000e+000
    outer loop
      vertex -7.653669e-001 -1.847759e+000  0.000000e+000
      vertex -7.653669e-001 -1.847759e+000  7.000000e+000
      vertex -1.111140e+000 -1.662939e+000  0.000000e+000
    endloop
  endfacet
  facet normal -4.713966e-001 -8.819212e-001  0.000000e+000
    outer loop
      vertex -1.111140e+000 -1.662939e+000  0.000000e+000
      vertex -7.653669e-001 -1.847759e+000  7.000000e+000
      vertex -1.111140e+000 -1.662939e+000  7.000000e+000
    endloop
  endfacet
  facet normal -6.343933e-001 -7.730104e-001  -0.000000e+000
    outer loop
      vertex -1.111140e+000 -1.662939e+000  0.000000e+000
      vertex -1.111140e+000 -1.662939e+000  7.000000e+000
      vertex -1.414214e+000 -1.414214e+000  0.000000e+000
    endloop
  endfacet
  facet normal -6.343933e-001 -7.730104e-001  0.000000e+000
    outer loop
      vertex -1.414214e+000 -1.414214e+000  0.000000e+000
      vertex -1.111140e+000 -1.662939e+000  7.000000e+000
      vertex -1.414214e+000 -1.414214e+000  7.000000e+000
    endloop
  endfacet
  facet normal -7.730104e-001 -6.343933e-001  -0.000000e+000
    outer loop
      vertex -1.414214e+000 -1.414214e+000  0.000000e+000
      vertex -1.414214e+000 -1.414214e+000  7.000000e+000
      vertex -1.662939e+000 -1.111140e+000  0.000000e+000
    endloop
  endfacet
  facet normal -7.730104e-001 -6.343933e-001  0.000000e+000
    outer loop
      vertex -1.662939e+000 -1.111140e+000  0.000000e+000
      vertex -1.414214e+000 -1.414214e+000  7.000000e+000
      vertex -1.662939e+000 -1.111140e+000  7.000000e+000
    endloop
  endfacet
  facet normal -8.819212e-001 -4.713966e-001  -0.000000e+000
    outer loop
      vertex -1.662939e+000 -1.111140e+000  0.000000e+000
      vertex -1.662939e+000 -1.111140e+000  7.000000e+000
      vertex -1.847759e+000 -7.653669e-001  0.000000e+000
    endloop
  endfacet
  facet normal -8.819212e-001 -4.713966e-001  0.000000e+000
    outer loop
      vertex -1.847759e+000 -7.653669e-001  0.000000e+000
      vertex -1.662939e+000 -1.111140e+000  7.000000e+000
      vertex -1.847759e+000 -7.653669e-001  7.000000e+000
    endloop
  endfacet
  facet normal -9.569403e-001 -2.902847e-001  -0.000000e+000
    outer loop
      vertex -1.847759e+000 -7.653669e-001  0.000000e+000
      vertex -1.847759e+000 -7.653669e-001  7.000000e+000
      vertex -1.961571e+000 -3.901806e-001  0.000000e+000
    endloop
  endfacet
  facet normal -9.569403e-001 -2.902847e-001  0.000000e+000
    outer loop
      vertex -1.961571e+000 -3.901806e-001  0.000000e+000
      vertex -1.847759e+000 -7.653669e-001  7.000000e+000
      vertex -1.961571e+000 -3.901806e-001  7.000000e+000
    endloop
  endfacet
  facet normal -9.951847e-001 -9.801728e-002  -0.000000e+000
    outer loop
      vertex -1.961571e+000 -3.901806e-001  0.000000e+000
      vertex -1.961571e+000 -3.901806e-001  7.000000e+000
      vertex -2.000000e+000  2.449213e-016  0.000000e+000
    endloop
  endfacet
  facet normal -9.951847e-001 -9.801728e-002  0.000000e+000
    outer loop
      vertex -2.000000e+000  2.449213e-016  0.000000e+000
      vertex -1.961571e+000 -3.901806e-001  7.000000e+000
      vertex -2.000000e+000  2.449213e-016  7.000000e+000
    endloop
  endfacet
  facet normal -9.951847e-001  9.801728e-002  0.000000e+000
    outer loop
      vertex -2.000000e+000  2.449213e-016  0.000000e+000
      vertex -2.000000e+000  2.449213e-016  7.000000e+000
      vertex -1.961571e+000  3.901806e-001  0.000000e+000
    endloop
  endfacet
  facet normal -9.951847e-001  9.801728e-002  0.000000e+000
    outer loop
      vertex -1.961571e+000  3.901806e-001  0.000000e+000
      vertex -2.000000e+000  2.449213e-016  7.000000e+000
      vertex -1.961571e+000  3.901806e-001  7.000000e+000
    endloop
  endfacet
  facet normal -9.569403e-001  2.902847e-001  0.000000e+000
    outer loop
      vertex -1.961571e+000  3.901806e-001  0.000000e+000
      vertex -1.961571e+000  3.901806e-001  7.000000e+000
      vertex -1.847759e+000  7.653669e-001  0.000000e+000
    endloop
  endfacet
  facet normal -9.569403e-001  2.902847e-001  0.000000e+000
    outer loop
      vertex -1.847759e+000  7.653669e-001  0.000000e+000
      vertex -1.961571e+000  3.901806e-001  7.000000e+000
      vertex -1.847759e+000  7.653669e-001  7.000000e+000
    endloop
  endfacet
  facet normal -8.819212e-001  4.713966e-001  0.000000e+000
    outer loop
      vertex -1.847759e+000  7.653669e-001  0.000000e+000
      vertex -1.847759e+000  7.653669e-001  7.000000e+000
      vertex -1.662939e+000  1.111140e+000  0.000000e+000
    endloop
  endfacet
  facet normal -8.819212e-001  4.713966e-001  0.000000e+000
    outer loop
      vertex -1.662939e+000  1.111140e+000  0.000000e+000
      vertex -1.847759e+000  7.653669e-001  7.000000e+000
      vertex -1.662939e+000  1.111140e+000  7.000000e+000
    endloop
  endfacet
  facet normal -7.730104e-001  6.343933e-001  0.000000e+000
    outer loop
      vertex -1.662939e+000  1.111140e+000  0.000000e+000
      vertex -1.662939e+000  1.111140e+000  7.000000e+000
      vertex -1.414214e+000  1.414214e+000  0.000000e+000
    endloop
  endfacet
  facet normal -7.730104e-001  6.343933e-001  0.000000e+000
    outer loop
      vertex -1.414214e+000  1.414214e+000  0.000000e+000
      vertex -1.662939e+000  1.111140e+000  7.000000e+000
      vertex -1.414214e+000  1.414214e+000  7.000000e+000
    endloop
  endfacet
  facet normal -6.343933e-001  7.730104e-001  0.000000e+000
    outer loop
      vertex -1.414214e+000  1.414214e+000  0.000000e+000
      vertex -1.414214e+000  1.414214e+000  7.000000e+000
      vertex -1.111140e+000  1.662939e+000  0.000000e+000
    endloop
  endfacet
  facet normal -6.343933e-001  7.730104e-001  0.000000e+000
    outer loop
      vertex -1.111140e+000  1.662939e+000  0.000000e+000
      vertex -1.414214e+000  1.414214e+000  7.000000e+000
      vertex -1.111140e+000  1.662939e+000  7.000000e+000
    endloop
  endfacet
  facet normal -4.713966e-001  8.819212e-001  0.000000e+000
    outer loop
      vertex -1.111140e+000  1.662939e+000  0.000000e+000
      vertex -1.111140e+000  1.662939e+000  7.000000e+000
      vertex -7.653669e-001  1.847759e+000  0.000000e+000
    endloop
  endfacet
  facet normal -4.713966e-001  8.819212e-001  0.000000e+000
    outer loop
      vertex -7.653669e-001  1.847759e+000  0.000000e+000
      vertex -1.111140e+000  1.662939e+000  7.000000e+000
      vertex -7.653669e-001  1.847759e+000  7.000000e+000
    endloop
  endfacet
  facet normal -2.902847e-001  9.569403e-001  0.000000e+000
    outer loop
      vertex -7.653669e-001  1.847759e+000  0.000000e+000
      vertex -7.653669e-001  1.847759e+000  7.000000e+000
      vertex -3.901806e-001  1.961571e+000  0.000000e+000
    endloop
  endfacet
  facet normal -2.902847e-001  9.569403e-001  0.000000e+000
    outer loop
      vertex -3.901806e-001  1.961571e+000  0.000000e+000
      vertex -7.653669e-001  1.847759e+000  7.000000e+000
      vertex -3.901806e-001  1.961571e+000  7.000000e+000
    endloop
  endfacet
  facet normal -9.801728e-002  9.951847e-001  0.000000e+000
    outer loop
      vertex -3.901806e-001  1.961571e+000  0.000000e+000
      vertex -3.901806e-001  1.961571e+000  7.000000e+000
      vertex  1.224606e-016  2.000000e+000  0.000000e+000
    endloop
  endfacet
  facet normal -9.801728e-002  9.951847e-001  0.000000e+000
    outer loop
      vertex  1.224606e-016  2.000000e+000  0.000000e+000
      vertex -3.901806e-001  1.961571e+000  7.000000e+000
      vertex  1.224606e-016  2.000000e+000  7.000000e+000
    endloop
  endfacet
  facet normal  9.801728e-002  9.951847e-001  0.000000e+000
    outer loop
      vertex  1.224606e-016  2.000000e+000  0.000000e+000
      vertex  1.224606e-016  2.000000e+000  7.000000e+000
      vertex  3.901806e-001  1.961571e+000  0.000000e+000
    endloop
  endfacet
  facet normal  9.801728e-002  9.951847e-001  -0.000000e+000
    outer loop
      vertex  3.901806e-001  1.961571e+000  0.000000e+000
      vertex  1.224606e-016  2.000000e+000  7.000000e+000
      vertex  3.901806e-001  1.961571e+000  7.000000e+000
    endloop
  endfacet
  facet normal  2.902847e-001  9.569403e-001  0.000000e+000
    outer loop
      vertex  3.901806e-001  1.961571e+000  0.000000e+000
      vertex  3.901806e-001  1.961571e+000  7.000000e+000
      vertex  7.653669e-001  1.847759e+000  0.000000e+000
    endloop
  endfacet
  facet normal  2.902847e-001  9.569403e-001  -0.000000e+000
    outer loop
      vertex  7.653669e-001  1.847759e+000  0.000000e+000
      vertex  3.901806e-001  1.961571e+000  7.000000e+000
      vertex  7.653669e-001  1.847759e+000  7.000000e+000
    endloop
  endfacet
  facet normal  4.713966e-001  8.819212e-001  0.000000e+000
    outer loop
      vertex  7.653669e-001  1.847759e+000  0.000000e+000
      vertex  7.653669e-001  1.847759e+000  7.000000e+000
      vertex  1.111140e+000  1.662939e+000  0.000000e+000
    endloop
  endfacet
  facet normal  4.713966e-001  8.819212e-001  -0.000000e+000
    outer loop
      vertex  1.111140e+000  1.662939e+000  0.000000e+000
      vertex  7.653669e-001  1.847759e+000  7.000000e+000
      vertex  1.111140e+000  1.662939e+000  7.000000e+000
    endloop
  endfacet
  facet normal  6.343933e-001  7.730104e-001  0.000000e+000
    outer loop
      vertex  1.111140e+000  1.662939e+000  0.000000e+000
      vertex  1.111140e+000  1.662939e+000  7.000000e+000
      vertex  1.414214e+000  1.414214e+000  0.000000e+000
    endloop
  endfacet
  facet normal  6.343933e-001  7.730104e-001  -0.000000e+000
    outer loop
      vertex  1.414214e+000  1.414214e+000  0.000000e+000
      vertex  1.111140e+000  1.662939e+000  7.000000e+000
      vertex  1.414214e+000  1.414214e+000  7.000000e+000
    endloop
  endfacet
  facet normal  7.730104e-001  6.343933e-001  0.000000e+000
    outer loop
      vertex  1.414214e+000  1.414214e+000  0.000000e+000
      vertex  1.414214e+000  1.414214e+000  7.000000e+000
      vertex  1.662939e+000  1.111140e+000  0.000000e+000
    endloop
  endfacet
  facet normal  7.730104e-001  6.343933e-001  -0.000000e+000
    outer loop
      vertex  1.662939e+000  1.111140e+000  0.000000e+000
      vertex  1.414214e+000  1.414214e+000  7.000000e+000
      vertex  1.662939e+000  1.111140e+000  7.000000e+000
    endloop
  endfacet
  facet normal  8.819212e-001  4.713966e-001  0.000000e+000
    outer loop
      vertex  1.662939e+000  1.111140e+000  0.000000e+000
      vertex  1.662939e+000  1.111140e+000  7.000000e+000
      vertex  1.847759e+000  7.653669e-001  0.000000e+000
    endloop
  endfacet
  facet normal  8.819212e-001  4.713966e-001  -0.000000e+000
    outer loop
      vertex  1.847759e+000  7.653669e-001  0.000000e+000
      vertex  1.662939e+000  1.111140e+000  7.000000e+000
      vertex  1.847759e+000  7.653669e-001  7.000000e+000
    endloop
  endfacet
  facet normal  9.569403e-001  2.902847e-001  0.000000e+000
    outer loop
      vertex  1.847759e+000  7.653669e-001  0.000000e+000
      vertex  1.847759e+000  7.653669e-001  7.000000e+000
      vertex  1.961571e+000  3.901806e-001  0.000000e+000
    endloop
  endfacet
  facet normal  9.569403e-001  2.902847e-001  -0.000000e+000
    outer loop
      vertex  1.961571e+000  3.901806e-001  0.000000e+000
      vertex  1.847759e+000  7.653669e-001  7.000000e+000
      vertex  1.961571e+000  3.901806e-001  7.000000e+000
    endloop
  endfacet
  facet normal  9.951847e-001  9.801728e-002  0.000000e+000
    outer loop
      vertex  1.961571e+000  3.901806e-001  0.000000e+000
      vertex  1.961571e+000  3.901806e-001  7.000000e+000
      vertex  2.000000e+000  0.000000e+000  0.000000e+000
    endloop
  endfacet
  facet normal  9.951847e-001  9.801728e-002  -0.000000e+000
    outer loop
      vertex  2.000000e+000  0.000000e+000  0.000000e+000
      vertex  1.961571e+000  3.901806e-001  7.000000e+000
      vertex  2.000000e+000  0.000000e+000  7.000000e+000
    endloop
  endfacet
endsolid CATIA STL
